# xmcd
#
# Track frame offsets:
#	150
#	15829
#	35033
#	52740
#	69280
#	91388
#	104795
#	123762
#	144125
#	158016
#	171450
#
# Disc length: 2537 seconds
#
# Revision: 1
# Processed by: cddbd v1.5.2PL0 Copyright (c) Steve Scherf et al.
# Submitted via: audiograbber 1.83.01
#
DISCID=8309e70b
DTITLE=Markus Zosel and Band - The Vision Lives On
DYEAR=1900
DGENRE=Country
TTITLE0=Friday Night
TTITLE1=Nashville
TTITLE2=I´m Gonna Show You
TTITLE3=Autumn Dance
TTITLE4=My Generation
TTITLE5=Mary´s Flower Garden
TTITLE6=On The Way
TTITLE7=The Letters Of Her Name
TTITLE8=The Feeling
TTITLE9=There Ain´t No More Primadonna
TTITLE10=Cumbaya
EXTD=
EXTT0=
EXTT1=
EXTT2=
EXTT3=
EXTT4=
EXTT5=
EXTT6=
EXTT7=
EXTT8=
EXTT9=
EXTT10=
PLAYORDER=
